<?xml version="1.0" standalone="no"?>
<!DOCTYPE svg PUBLIC "-//W3C//DTD SVG 20010904//EN"
 "http://www.w3.org/TR/2001/REC-SVG-20010904/DTD/svg10.dtd">
<svg version="1.0" xmlns="http://www.w3.org/2000/svg"
 width="469.000000pt" height="469.000000pt" viewBox="0 0 469.000000 469.000000"
 preserveAspectRatio="xMidYMid meet">
<metadata>
Created by potrace 1.11, written by Peter Selinger 2001-2013
</metadata>
<g transform="translate(0.000000,469.000000) scale(0.100000,-0.100000)"
fill="#000000" stroke="none">
<path d="M3246 4674 c-9 -8 -16 -12 -16 -7 -1 10 -48 -64 -60 -94 -5 -13 -14
-23 -20 -23 -6 0 -9 -4 -5 -9 3 -5 1 -12 -5 -16 -5 -3 -10 -15 -10 -26 0 -10
-4 -19 -10 -19 -5 0 -8 -13 -6 -30 2 -16 -1 -27 -5 -24 -5 3 -9 0 -9 -6 0 -7
-11 -5 -29 4 -16 9 -31 12 -35 9 -3 -4 -6 -1 -6 5 0 6 -7 9 -15 6 -8 -4 -15
-1 -15 4 0 6 -8 11 -17 12 -10 0 -36 2 -58 4 -22 2 -43 -1 -47 -7 -9 -15 -40
-18 -55 -6 -7 6 -17 8 -23 4 -5 -3 -10 -1 -10 5 0 6 -4 8 -10 5 -5 -3 -16 -3
-22 2 -7 4 -24 9 -38 9 -14 1 -26 3 -27 4 -2 1 -7 4 -13 5 -5 1 -11 3 -12 5
-7 5 -122 23 -226 34 -23 3 -47 8 -52 11 -6 3 -10 1 -10 -5 0 -6 -5 -8 -12 -4
-19 12 -68 12 -68 0 0 -8 -3 -8 -8 0 -8 12 -190 13 -209 1 -6 -4 -14 -3 -18 3
-4 6 -12 7 -18 3 -7 -4 -30 -8 -52 -9 -22 -1 -40 -3 -40 -4 0 -1 -13 -3 -30
-4 -16 -2 -50 -7 -75 -11 -25 -4 -52 -9 -60 -10 -8 -1 -25 -5 -37 -9 -12 -4
-30 -8 -40 -10 -10 -2 -36 -9 -58 -15 -22 -6 -44 -11 -50 -12 -5 0 -16 -5 -22
-11 -7 -6 -13 -8 -13 -4 0 4 -13 0 -30 -9 -16 -8 -32 -15 -35 -15 -3 0 -6 0
-7 -1 -2 0 -12 -2 -22 -4 -10 -2 -22 -9 -26 -16 -5 -6 -15 -9 -24 -6 -9 4 -16
2 -16 -2 0 -11 -60 -33 -60 -23 0 4 -5 -1 -11 -11 -6 -9 -14 -15 -20 -12 -5 4
-9 1 -9 -5 0 -6 -4 -9 -9 -5 -5 3 -15 -1 -23 -8 -7 -7 -29 -19 -48 -27 -19 -8
-51 -25 -70 -38 -19 -13 -45 -28 -58 -33 -12 -5 -22 -13 -22 -19 0 -6 -4 -9
-8 -6 -5 3 -18 -2 -28 -12 -10 -9 -39 -30 -62 -47 -24 -16 -60 -44 -79 -62
-20 -18 -41 -29 -46 -26 -6 3 -7 1 -3 -5 3 -6 -3 -16 -14 -22 -11 -6 -38 -28
-59 -50 -22 -22 -45 -40 -52 -40 -7 0 -10 -2 -7 -6 3 -3 -16 -28 -43 -55 -27
-28 -49 -55 -49 -60 0 -6 -4 -7 -10 -4 -5 3 -10 2 -10 -3 0 -5 -8 -18 -18 -29
-62 -73 -144 -183 -135 -183 3 0 -4 -9 -17 -20 -13 -11 -20 -20 -15 -20 4 0
-3 -15 -17 -32 -13 -18 -30 -46 -38 -63 -8 -16 -17 -32 -20 -35 -11 -11 -40
-73 -40 -86 0 -8 -3 -14 -8 -14 -4 0 -13 -9 -20 -21 -9 -14 -10 -19 -2 -14 8
5 8 0 -1 -16 -7 -13 -12 -27 -11 -31 1 -5 -2 -8 -8 -8 -6 0 -9 -3 -9 -7 3 -20
-2 -34 -11 -28 -5 3 -7 0 -4 -9 3 -8 1 -23 -5 -34 -5 -10 -12 -30 -15 -43 -2
-13 -10 -37 -16 -54 -7 -16 -14 -37 -16 -45 -1 -8 -8 -33 -14 -55 -6 -22 -13
-51 -16 -65 -2 -14 -9 -48 -15 -76 -5 -28 -12 -66 -14 -85 -2 -19 -7 -52 -10
-74 -4 -22 -8 -69 -10 -105 -2 -36 -4 -65 -5 -65 -1 0 -2 -37 -3 -83 -1 -45 1
-82 4 -82 3 0 5 -12 4 -27 -1 -16 2 -45 6 -65 3 -22 2 -38 -3 -38 -5 0 -6 -6
-1 -12 4 -7 9 -20 10 -28 7 -39 16 -106 16 -117 0 -7 3 -13 6 -13 3 0 7 -10 7
-22 3 -52 9 -78 18 -78 5 0 7 -3 3 -6 -3 -3 1 -26 8 -52 8 -25 12 -49 9 -53
-2 -4 0 -10 5 -14 6 -3 18 -33 27 -66 9 -33 21 -62 25 -65 5 -3 9 -14 9 -25 0
-10 5 -19 12 -19 6 0 8 -3 5 -6 -3 -4 -1 -16 5 -28 7 -11 13 -23 13 -26 0 -3
12 -28 27 -57 14 -28 24 -54 21 -57 -4 -3 -2 -6 4 -6 6 0 16 -13 22 -30 5 -16
14 -30 19 -30 5 0 9 -6 9 -13 0 -12 50 -96 64 -107 3 -3 13 -18 22 -35 8 -16
24 -39 34 -50 11 -11 24 -28 29 -37 11 -20 67 -88 111 -134 18 -19 30 -34 27
-34 -4 0 15 -18 136 -130 60 -55 91 -80 101 -80 5 0 9 -4 9 -10 0 -5 7 -10 16
-10 8 0 12 -4 9 -10 -3 -5 1 -10 9 -10 9 0 16 -4 16 -10 0 -5 7 -10 15 -10 8
0 15 -4 15 -10 0 -5 7 -10 15 -10 8 0 15 -4 15 -10 0 -5 7 -10 15 -10 8 0 15
-4 15 -10 0 -5 9 -10 21 -10 11 0 18 -4 15 -9 -3 -5 9 -15 27 -22 17 -7 34
-16 37 -19 3 -3 19 -12 35 -18 25 -10 31 -19 33 -47 1 -18 -2 -36 -8 -40 -6
-3 -8 -10 -5 -15 3 -5 -4 -11 -15 -15 -18 -6 -21 -11 -20 -30 1 -3 -6 -13 -15
-21 -8 -9 -13 -20 -10 -25 4 -5 2 -9 -3 -9 -6 0 -13 -12 -17 -27 -3 -15 -11
-30 -16 -33 -12 -8 -22 -77 -15 -106 4 -13 15 -28 26 -34 23 -12 64 -4 55 11
-3 5 1 6 9 3 10 -4 16 -1 16 9 0 12 8 14 37 11 20 -3 42 -9 47 -13 6 -5 22
-11 36 -13 14 -1 27 -6 30 -9 3 -4 16 -9 30 -10 14 -2 28 -8 31 -12 4 -5 18
-10 33 -10 14 -1 26 -6 26 -11 0 -4 7 -6 15 -2 8 3 15 1 15 -5 0 -6 4 -8 9 -4
5 3 12 1 16 -5 3 -5 21 -10 39 -10 18 0 36 -3 40 -7 3 -4 14 -8 24 -9 9 -1 28
-5 42 -8 14 -3 39 -9 55 -13 17 -3 44 -7 60 -8 17 -2 38 -6 48 -10 9 -4 24 -5
32 -1 8 3 15 1 15 -5 0 -6 4 -7 10 -4 5 3 15 -3 22 -15 12 -19 23 -20 155 -20
78 0 143 4 145 9 2 5 37 12 78 16 41 3 89 8 105 11 17 3 41 5 54 5 12 -1 28 2
34 6 6 3 29 8 51 9 22 2 47 6 55 10 9 4 24 6 34 5 9 -1 17 1 17 6 0 4 12 9 28
10 41 3 66 8 77 15 6 3 27 9 47 13 21 4 36 10 34 14 -2 3 12 7 32 8 19 1 39 8
43 15 5 7 9 10 9 6 0 -4 18 -1 39 7 22 7 42 11 45 8 3 -4 6 -1 6 5 0 7 9 12
20 12 11 0 20 5 20 12 0 6 3 9 6 5 3 -3 25 3 49 13 24 10 46 16 49 13 3 -4 6
-2 6 4 0 5 20 18 45 29 25 10 45 22 45 26 0 4 3 8 8 7 15 -2 52 14 52 22 0 5
6 8 13 6 6 -1 11 4 9 11 -1 8 2 11 8 7 6 -4 34 9 63 27 29 19 70 45 92 58 22
13 44 30 48 37 4 7 14 13 22 13 8 0 18 6 22 13 4 7 25 23 46 36 20 12 37 27
37 32 0 5 6 9 14 9 8 0 17 9 21 20 3 11 9 19 13 19 20 -3 32 2 27 11 -3 5 -2
10 3 10 13 0 52 36 52 48 0 7 8 9 18 5 9 -3 14 -2 10 2 -5 5 1 15 12 22 11 8
17 19 14 25 -4 6 -3 8 3 5 6 -4 22 7 37 23 14 17 31 30 36 30 6 0 9 4 7 8 -1
4 23 36 53 71 30 34 60 71 66 82 5 11 12 17 15 14 3 -3 12 7 20 23 8 15 20 31
27 35 7 5 10 12 7 18 -4 5 -1 9 4 9 6 0 11 6 11 14 0 8 7 17 16 20 9 4 14 13
10 22 -3 8 -2 13 2 10 9 -5 75 101 75 120 0 7 3 11 7 9 8 -5 35 45 32 58 -1 4
3 7 10 7 6 0 8 3 5 6 -4 4 2 19 12 33 28 42 62 121 56 132 -4 5 -1 8 6 7 11
-3 27 40 31 80 1 6 5 12 9 12 8 0 34 78 31 92 -1 5 2 8 6 8 5 0 9 7 10 15 1 8
3 22 4 30 1 8 5 15 10 15 5 0 6 5 3 10 -3 6 -1 10 5 10 6 0 9 4 6 8 -3 5 2 35
11 68 21 80 24 97 25 112 1 6 6 12 12 12 6 0 4 5 -4 10 -11 7 -11 10 -2 10 7
0 12 6 11 12 -1 7 2 36 6 63 5 28 9 52 10 55 0 3 4 10 8 17 4 6 3 14 -3 18 -6
4 -7 12 -3 18 9 14 11 33 18 175 3 56 6 106 6 110 1 4 1 9 0 12 -1 3 -4 48 -6
100 -5 106 -11 175 -14 175 -1 0 -4 16 -7 35 -2 19 -6 49 -8 65 -3 17 -7 50
-11 75 -3 24 -9 47 -13 50 -4 3 -8 14 -8 25 -1 11 -4 29 -6 40 -7 28 -19 78
-23 90 -1 6 -3 15 -5 20 -1 6 -6 17 -11 26 -4 9 -10 27 -13 40 -2 13 -10 38
-17 54 -7 17 -13 32 -14 35 -6 23 -21 62 -37 97 -11 23 -21 48 -22 56 -1 8 -8
22 -15 30 -7 9 -14 23 -15 30 -1 8 -7 21 -12 28 -6 8 -16 29 -24 47 -7 17 -16
32 -21 32 -5 0 -9 7 -9 15 0 18 -18 51 -42 79 -10 11 -18 26 -18 33 0 7 -4 13
-10 13 -5 0 -10 5 -10 10 0 12 -41 73 -52 78 -5 2 -8 8 -8 13 0 6 -9 19 -20
31 -11 12 -20 28 -20 35 0 8 -4 11 -10 8 -5 -3 -10 0 -10 9 0 8 -13 27 -29 42
-17 15 -28 31 -25 36 3 4 -1 8 -9 8 -7 0 -19 12 -25 26 -8 16 -17 22 -25 18
-6 -4 -9 -3 -4 1 8 9 -3 22 -126 145 -80 81 -124 119 -222 192 -5 4 -23 18
-40 31 -44 34 -194 127 -205 127 -12 0 -24 45 -16 59 8 13 -15 62 -25 55 -5
-3 -9 -1 -9 3 0 15 -49 13 -64 -3z m64 -335 c3 -3 12 -9 20 -13 39 -18 59 -33
53 -39 -3 -4 1 -7 10 -7 10 0 25 -8 36 -17 10 -10 32 -29 50 -41 17 -13 46
-38 64 -55 31 -30 34 -39 28 -89 0 -7 -8 -3 -17 8 -8 10 -12 12 -8 4 4 -8 -3
-5 -15 8 -12 12 -28 22 -37 22 -8 0 -17 7 -20 15 -4 8 -10 12 -15 9 -5 -3 -9
0 -9 5 0 6 -4 11 -10 11 -14 0 -52 40 -70 74 -9 15 -19 28 -23 27 -3 0 -17 9
-30 22 -27 25 -88 62 -100 59 -14 -4 -2 33 13 39 12 5 62 -21 80 -42z m-1920
-3871 c0 -4 9 -8 20 -8 11 0 20 -5 20 -11 0 -5 4 -8 9 -4 5 3 12 1 16 -5 3 -5
16 -10 29 -10 12 0 27 -5 34 -12 7 -7 12 -8 12 -2 0 5 4 3 9 -4 4 -7 18 -14
29 -15 12 -1 22 -4 22 -7 0 -4 6 -7 13 -8 32 -3 52 -8 57 -13 6 -7 121 -38
170 -46 19 -3 36 -9 38 -14 2 -4 14 -4 28 1 13 5 24 6 24 2 0 -7 9 -8 115 -15
34 -2 66 -7 73 -11 7 -4 12 -2 12 4 0 7 5 8 13 3 6 -4 35 -8 62 -9 28 -1 54
-2 58 -3 11 -2 -12 -41 -24 -41 -6 0 -7 6 -3 13 6 9 5 9 -7 0 -15 -12 -319
-14 -319 -2 0 3 -26 9 -57 12 -32 4 -71 9 -88 12 -16 3 -41 7 -55 9 -14 3 -27
6 -30 7 -3 1 -9 3 -15 4 -5 2 -13 4 -17 5 -9 3 -12 4 -58 14 -19 5 -39 11 -45
14 -10 6 -27 11 -55 16 -8 1 -25 7 -36 14 -12 6 -24 9 -27 6 -3 -3 -13 -1 -24
5 -10 6 -34 17 -55 25 l-36 14 16 36 c14 29 22 35 45 34 15 -1 27 -6 27 -10z"/>
</g>
</svg>
